<svg width="16" height="18" viewBox="0 0 16 18" fill="none" xmlns="http://www.w3.org/2000/svg">
<path d="M7.9225 0.879862C7.91843 0.883927 7.81884 0.892057 7.70095 0.898155C6.72739 0.955065 5.66236 1.24571 4.72131 1.70709C4.12173 2.0018 3.51604 2.4022 2.99776 2.84529C2.79451 3.02008 2.25183 3.57089 2.0811 3.7782C1.44899 4.54039 0.963226 5.38998 0.658352 6.25785C0.617702 6.37574 0.577052 6.49362 0.566889 6.52208C0.483557 6.75581 0.337217 7.36963 0.282339 7.72125C0.272177 7.79442 0.25795 7.87165 0.253885 7.89604C0.24982 7.92043 0.239657 8.0119 0.231527 8.09929C0.223397 8.18669 0.20917 8.32897 0.20104 8.4123C0.178682 8.65213 0.18478 9.39196 0.213235 9.69277C0.24982 10.0891 0.259982 10.1602 0.314859 10.4651C0.615669 12.1013 1.37582 13.5484 2.54857 14.7252C2.99166 15.1683 3.32499 15.4468 3.77823 15.7496C3.88392 15.8187 3.99571 15.8939 4.0262 15.9142C4.24774 16.0667 4.89204 16.3919 5.26399 16.5382C5.90016 16.7923 6.3717 16.9203 7.09121 17.0402C7.53023 17.1114 8.43875 17.148 8.91029 17.1094C10.6704 16.9711 12.3046 16.2943 13.6155 15.1622C13.8147 14.9915 14.0423 14.7699 14.0423 14.7496C14.0423 14.7395 13.5606 14.2517 12.9733 13.6643L11.9042 12.5952L11.8188 12.6744C11.6684 12.8208 11.6155 12.8655 11.4509 12.9935C11.0708 13.2923 10.7375 13.4874 10.2213 13.7131C9.9489 13.833 9.43264 13.9712 9.0424 14.0301C8.75989 14.0748 8.06274 14.0891 7.78022 14.0565C6.80259 13.9488 5.84732 13.5525 5.11155 12.9488C4.1949 12.1988 3.55466 11.144 3.33515 10.018C3.25385 9.60537 3.23962 9.4631 3.23962 9.01188C3.23962 8.53222 3.25792 8.35132 3.34531 7.93669C3.5506 6.96719 4.00994 6.12371 4.72131 5.41436C5.21115 4.92453 5.72334 4.57901 6.33918 4.31682C6.68267 4.17048 7.16031 4.03633 7.53836 3.98145C7.62169 3.96926 7.71315 3.953 7.7416 3.9469C7.77006 3.9408 7.98957 3.93471 8.2294 3.93064C8.57493 3.92454 8.72737 3.93267 8.9611 3.96316C10.0282 4.10544 10.9428 4.53226 11.7497 5.26396L11.9082 5.40623L9.84727 7.46719L12.4184 7.47328C14.2619 7.47735 15.022 7.47328 15.1094 7.45702C15.4834 7.38589 15.8025 7.08305 15.9021 6.70297C15.9265 6.61151 15.9326 6.17249 15.9326 3.98552V1.37782L14.9976 2.31481L14.0606 3.25179L13.8635 3.0648C12.9326 2.18879 11.7659 1.53026 10.516 1.17661C9.80459 0.97539 9.11354 0.879862 8.329 0.875797C8.10949 0.873765 7.92656 0.875797 7.9225 0.879862Z" fill="black"/>
</svg>
