<svg width="20" height="20" viewBox="0 0 20 20" fill="none" xmlns="http://www.w3.org/2000/svg">
<path fill-rule="evenodd" clip-rule="evenodd" d="M7.86725 13.0473C5.00651 13.0473 2.68752 10.7283 2.68752 7.86758C2.68752 5.00653 5.00651 2.68753 7.86725 2.68753C10.728 2.68753 13.047 5.00653 13.047 7.86758C13.047 10.7283 10.728 13.0473 7.86725 13.0473ZM19.5725 17.7947L14.0689 12.2914C14.9921 11.001 15.4872 9.4538 15.4845 7.86758C15.4845 3.66041 12.0744 0.25 7.86725 0.25C3.66009 0.25 0.25 3.66041 0.25 7.86758C0.25 12.0748 3.66009 15.4849 7.86725 15.4849C9.45377 15.4876 11.0013 14.9925 12.2913 14.0693L17.7943 19.5723C18.0329 19.8093 18.4177 19.8093 18.6563 19.5723L19.5725 18.6564C19.8093 18.4181 19.8093 18.033 19.5725 17.7947Z" fill="#F16E00"/>
</svg>
