<svg width="14" height="14" viewBox="0 0 14 14" fill="none" xmlns="http://www.w3.org/2000/svg">
<path fill-rule="evenodd" clip-rule="evenodd" d="M10.574 4.83676L6.47558 9.94414C6.44694 9.97989 6.41423 10.0124 6.37869 10.0412C6.10244 10.2643 5.69822 10.2208 5.47559 9.94414L3.42647 7.39025C3.22273 7.13654 3.24305 6.7695 3.4742 6.54017L3.73034 6.28484C3.96739 6.04901 4.34541 6.03439 4.59972 6.25173L5.84813 7.63014L9.63661 3.97247C9.75422 3.86237 9.9092 3.80062 10.0701 3.80001C10.4241 3.79778 10.7128 4.08358 10.7148 4.43823C10.7148 4.58326 10.665 4.72403 10.574 4.83676ZM7.00049 0.5C3.41066 0.5 0.500488 3.41017 0.500488 7C0.500488 10.5898 3.41066 13.5 7.00049 13.5C10.5903 13.5 13.5005 10.5898 13.5005 7C13.5005 3.41017 10.5903 0.5 7.00049 0.5Z" fill="#3DE35A"/>
</svg>
