<svg width="20" height="21" viewBox="0 0 20 21" fill="none" xmlns="http://www.w3.org/2000/svg">
<path fill-rule="evenodd" clip-rule="evenodd" d="M10.8129 16.5114C10.5467 16.7286 10.2356 16.8375 9.88053 16.8375C9.51948 16.8375 9.20443 16.7301 8.93506 16.5153C8.66586 16.3007 8.53125 16.0006 8.53125 15.6148C8.53125 15.2778 8.65979 14.991 8.91718 14.7545C9.17468 14.5182 9.49013 14.4 9.86293 14.4C10.2356 14.4 10.5539 14.5182 10.8174 14.7545C11.0807 14.991 11.2125 15.2778 11.2125 15.6148C11.2125 15.9951 11.0793 16.2941 10.8129 16.5114ZM8.9172 4.54998C9.16135 4.30199 9.48129 4.17522 9.8719 4.1625C10.2622 4.17522 10.5822 4.30199 10.8263 4.54998C11.0835 4.81157 11.2125 5.17601 11.2125 5.64326C11.2125 5.98635 10.7063 12.2974 10.5822 12.5534C10.4577 12.8096 10.2357 12.9375 9.916 12.9375C9.90007 12.9375 9.88742 12.9331 9.8719 12.9323C9.85638 12.9331 9.84325 12.9375 9.82746 12.9375C9.50781 12.9375 9.28592 12.8096 9.16164 12.5534C9.03713 12.2974 8.53125 5.98635 8.53125 5.64326C8.53125 5.17601 8.65979 4.81157 8.9172 4.54998ZM9.74995 0.75C4.36522 0.75 0 5.11525 0 10.5C0 15.8848 4.36522 20.25 9.74995 20.25C15.1348 20.25 19.5 15.8848 19.5 10.5C19.5 5.11525 15.1348 0.75 9.74995 0.75Z" fill="#FFCD0B"/>
</svg>
