<svg width="14" height="18" viewBox="0 0 14 18" fill="none" xmlns="http://www.w3.org/2000/svg">
<path fill-rule="evenodd" clip-rule="evenodd" d="M5.30135 0.904679C4.96643 0.996339 4.69682 1.26802 4.6089 1.60445C4.58984 1.67325 4.58019 1.80909 4.58019 2.0079V2.31005H3.31752C1.93618 2.31005 1.89603 2.31208 1.63201 2.42279C1.23586 2.5891 0.924065 2.94279 0.799806 3.37087C0.773124 3.46634 0.765246 3.59076 0.759656 4.09146L0.75 4.69931H13.1912L13.1891 4.1392C13.1871 3.66515 13.1815 3.558 13.1508 3.428C13.0494 2.99408 12.7777 2.65003 12.3836 2.45884C12.3724 2.45329 12.3617 2.44796 12.3514 2.44285C12.3051 2.41981 12.2675 2.40113 12.2286 2.38593C12.0613 2.32062 11.8688 2.31989 10.8486 2.316C10.7974 2.31581 10.744 2.3156 10.6885 2.31538L9.36252 2.30777V2.00765C9.36252 1.80884 9.35286 1.673 9.33381 1.60419C9.24385 1.26396 8.97424 0.994308 8.63348 0.904425C8.4861 0.864308 5.44035 0.866085 5.30084 0.904425L5.30135 0.904679ZM8.40653 2.07089V2.30982H5.53688V1.83197H8.40653V2.07089ZM1.71056 11.1511V11.1514V17.125H12.233V5.17744H1.71056V11.1511ZM4.32383 6.67024C4.42903 6.72381 4.53042 6.84416 4.56116 6.95131C4.57463 6.99905 4.58022 8.36583 4.58022 11.153C4.58022 14.8003 4.57641 15.2954 4.55151 15.3681C4.51136 15.4828 4.44427 15.5631 4.33729 15.626C4.25877 15.6738 4.22625 15.6814 4.10199 15.6814C3.97951 15.6814 3.9452 15.6738 3.86846 15.6278C3.81866 15.5991 3.75564 15.5476 3.73074 15.513C3.72381 15.5041 3.71733 15.4967 3.71126 15.4898L3.71124 15.4898C3.70706 15.485 3.70308 15.4805 3.69929 15.4758C3.62306 15.3818 3.62307 15.226 3.62345 11.9432V11.9431V11.9431L3.6235 11.1527L3.62334 10.1384C3.62256 7.06687 3.62252 6.8813 3.71479 6.79805C3.72071 6.79271 3.72701 6.78779 3.73372 6.78255L3.73375 6.78252L3.73377 6.78252C3.74391 6.77459 3.75499 6.76595 3.76707 6.75403C3.91446 6.60676 4.13629 6.57248 4.32383 6.66998V6.67024ZM7.41738 6.92646C7.37723 6.80611 7.25475 6.68373 7.1343 6.64361V6.64387C6.9084 6.56744 6.68656 6.64767 6.56027 6.85029L6.50284 6.94195L6.49699 11.1111L6.49607 12.0762C6.49283 15.2334 6.49265 15.4106 6.58106 15.495C6.58632 15.5 6.59188 15.5047 6.59778 15.5097L6.59779 15.5097L6.5978 15.5097C6.60678 15.5172 6.61652 15.5254 6.6271 15.5364C6.74195 15.655 6.80701 15.6817 6.97141 15.6817C7.09389 15.6817 7.13023 15.672 7.20494 15.6281C7.25475 15.5994 7.31777 15.5479 7.34267 15.5133C7.3496 15.5043 7.35609 15.497 7.36216 15.4901C7.36634 15.4853 7.37033 15.4808 7.37413 15.4761C7.45035 15.3822 7.45033 15.2264 7.44996 11.9434L7.4499 11.153C7.4499 7.35455 7.44787 7.01254 7.41738 6.92646ZM10.0786 6.67604C10.1782 6.73342 10.2547 6.82711 10.2928 6.9302C10.3139 6.98936 10.3177 7.73508 10.3195 11.1435C10.3195 11.4785 10.3196 11.7873 10.3196 12.0719C10.3202 15.2381 10.3203 15.4179 10.2308 15.4997C10.2254 15.5046 10.2196 15.5092 10.2136 15.514C10.2044 15.5214 10.1944 15.5294 10.1836 15.5402C10.0707 15.6529 10.0057 15.6798 9.84103 15.6798C9.71677 15.6819 9.68424 15.674 9.60572 15.6283C9.49849 15.5653 9.41641 15.4582 9.38389 15.3434C9.36661 15.2822 9.3628 14.246 9.36661 11.1131L9.37245 6.96295L9.42022 6.87129C9.47384 6.76618 9.57142 6.67832 9.68043 6.63795C9.79148 6.59581 9.97317 6.61307 10.0784 6.67629L10.0786 6.67604Z" fill="#CCCCCC"/>
</svg>
